<svg xmlns="http://www.w3.org/2000/svg" width="390" height="520" viewBox="0 0 390 520" role="img" aria-labelledby="title description">
  <title id="title">keList ??????</title>
  <desc id="description">???????????TodoList ???????????????????????????????????/desc>
  <defs>
    <linearGradient id="desktop" x1="0" y1="0" x2="1" y2="1">
      <stop offset="0" stop-color="#d2d2d2"/>
      <stop offset="1" stop-color="#eeeeee"/>
    </linearGradient>
    <linearGradient id="panel" x1="0" y1="0" x2="0" y2="1">
      <stop offset="0" stop-color="#dedee2" stop-opacity=".3"/>
      <stop offset="1" stop-color="#d4d4d8" stop-opacity=".22"/>
    </linearGradient>
    <filter id="shadow" x="-30%" y="-30%" width="160%" height="160%">
      <feDropShadow dx="0" dy="10" stdDeviation="16" flood-color="#000" flood-opacity=".16"/>
    </filter>
  </defs>

  <rect width="390" height="520" fill="url(#desktop)"/>
  <circle cx="62" cy="142" r="100" fill="#bcbcbc" opacity=".25"/>
  <circle cx="352" cy="382" r="135" fill="#ffffff" opacity=".42"/>
  <rect x="1" y="1" width="388" height="518" rx="12" fill="url(#panel)" stroke="#c9c9c9" filter="url(#shadow)"/>
  <path d="M13 1h364a12 12 0 0 1 12 12v41H1V13A12 12 0 0 1 13 1Z" fill="#e9e9ec" fill-opacity=".4"/>
  <path d="M1 54.5H389" stroke="#dddddd"/>

  <g transform="translate(15 17)" fill="none" stroke="#252525" stroke-width="1.2" stroke-linecap="round" stroke-linejoin="round">
    <rect width="22" height="22" rx="4"/>
    <path d="m5 7 2 2 3-3.5M12 7.5h6M5 15l2 2 3-3.5M12 15.5h6"/>
  </g>

  <text x="49" y="34" fill="#1d1d1d" font-family="Microsoft YaHei UI, Segoe UI, Arial, sans-serif" font-size="17">TodoList</text>
  <text x="119" y="34" fill="#747474" font-family="Microsoft YaHei UI, Segoe UI, Arial, sans-serif" font-size="11.5">for better</text>

  <g fill="none" stroke="#252525" stroke-width="1.35" stroke-linecap="round" stroke-linejoin="round">
    <path d="m246 18 12 12-5 3-2 7-6-6-8 8m4-19 12 12"/>
    <path d="m284 17 15 10-7 2-3 8z"/>
    <path d="m357 20 13 13m0-13-13 13"/>
  </g>
  <g fill="#252525">
    <circle cx="328" cy="27" r="1.3"/>
    <circle cx="333" cy="27" r="1.3"/>
    <circle cx="338" cy="27" r="1.3"/>
  </g>

  <text x="195" y="267" fill="#888888" font-family="Microsoft YaHei UI, Segoe UI, Arial, sans-serif" font-size="15" text-anchor="middle">What do you want to accomplish now?</text>

  <rect x="15.5" y="451.5" width="359" height="53" rx="9" fill="#e9e9ec" fill-opacity=".32" stroke="#a9a9a9"/>
  <text x="31" y="485" fill="#777777" font-family="Microsoft YaHei UI, Segoe UI, Arial, sans-serif" font-size="15.5">Lets do it</text>
</svg>
